<svg width="375" height="103" viewBox="0 0 375 103" fill="none" xmlns="http://www.w3.org/2000/svg">
<g filter="url(#filter0_ddii)">
<path fill-rule="evenodd" clip-rule="evenodd" d="M0 27.7938H93.75H97.4592C112.874 27.7938 120.582 27.7938 125.875 30.8536C131.168 33.9134 136.308 42.8393 146.588 60.6911C155.412 76.0157 168.878 90.9201 187.876 90.9201C206.672 90.9201 219.879 76.3304 228.527 61.1789C238.886 43.031 244.065 33.957 249.372 30.8754C254.679 27.7938 262.438 27.7938 277.956 27.7938H281.25H375V30.9441C375 64.8853 375 81.8558 364.456 92.4C353.912 102.944 336.941 102.944 303 102.944H72C38.0589 102.944 21.0883 102.944 10.5442 92.4C0 81.8558 0 64.8853 0 30.9441V27.7938Z" fill="white"/>
</g>
<path d="M271 76C271.552 76 272 75.5523 272 75C272 74.4477 271.552 74 271 74C270.448 74 270 74.4477 270 75C270 75.5523 270.448 76 271 76Z" stroke="#6267CE" stroke-opacity="0.51" stroke-width="1.5" stroke-linecap="round" stroke-linejoin="round"/>
<path d="M282 76C282.552 76 283 75.5523 283 75C283 74.4477 282.552 74 282 74C281.448 74 281 74.4477 281 75C281 75.5523 281.448 76 282 76Z" stroke="#6267CE" stroke-opacity="0.51" stroke-width="1.5" stroke-linecap="round" stroke-linejoin="round"/>
<path d="M263 55H267L269.68 68.39C269.771 68.8504 270.022 69.264 270.388 69.5583C270.753 69.8526 271.211 70.009 271.68 70H281.4C281.869 70.009 282.327 69.8526 282.692 69.5583C283.058 69.264 283.309 68.8504 283.4 68.39L285 60H268" stroke="#6267CE" stroke-opacity="0.51" stroke-width="1.5" stroke-linecap="round" stroke-linejoin="round"/>
<path d="M38 57H31V64H38V57Z" stroke="#A9AEE5" stroke-width="1.5" stroke-linecap="round" stroke-linejoin="round"/>
<path d="M49 57H42V64H49V57Z" stroke="#A9AEE5" stroke-width="1.5" stroke-linecap="round" stroke-linejoin="round"/>
<path d="M49 68H42V75H49V68Z" stroke="#A9AEE5" stroke-width="1.5" stroke-linecap="round" stroke-linejoin="round"/>
<path d="M38 68H31V75H38V68Z" stroke="#A9AEE5" stroke-width="1.5" stroke-linecap="round" stroke-linejoin="round"/>
<path d="M335 69C336.657 69 338 67.6569 338 66C338 64.3431 336.657 63 335 63C333.343 63 332 64.3431 332 66C332 67.6569 333.343 69 335 69Z" stroke="#A9AEE5" stroke-width="1.5" stroke-linecap="round" stroke-linejoin="round"/>
<path d="M342.4 69C342.267 69.3016 342.227 69.6362 342.286 69.9606C342.345 70.285 342.499 70.5843 342.73 70.82L342.79 70.88C342.976 71.0657 343.123 71.2863 343.224 71.5291C343.325 71.7719 343.377 72.0322 343.377 72.295C343.377 72.5578 343.325 72.8181 343.224 73.0609C343.123 73.3037 342.976 73.5243 342.79 73.71C342.604 73.896 342.384 74.0435 342.141 74.1441C341.898 74.2448 341.638 74.2966 341.375 74.2966C341.112 74.2966 340.852 74.2448 340.609 74.1441C340.366 74.0435 340.146 73.896 339.96 73.71L339.9 73.65C339.664 73.4195 339.365 73.2648 339.041 73.206C338.716 73.1472 338.382 73.1869 338.08 73.32C337.784 73.4468 337.532 73.6572 337.354 73.9255C337.177 74.1938 337.081 74.5082 337.08 74.83V75C337.08 75.5304 336.869 76.0391 336.494 76.4142C336.119 76.7893 335.61 77 335.08 77C334.55 77 334.041 76.7893 333.666 76.4142C333.291 76.0391 333.08 75.5304 333.08 75V74.91C333.072 74.579 332.965 74.258 332.773 73.9887C332.58 73.7194 332.311 73.5143 332 73.4C331.698 73.2669 331.364 73.2272 331.039 73.286C330.715 73.3448 330.416 73.4995 330.18 73.73L330.12 73.79C329.934 73.976 329.714 74.1235 329.471 74.2241C329.228 74.3248 328.968 74.3766 328.705 74.3766C328.442 74.3766 328.182 74.3248 327.939 74.2241C327.696 74.1235 327.476 73.976 327.29 73.79C327.104 73.6043 326.957 73.3837 326.856 73.1409C326.755 72.8981 326.703 72.6378 326.703 72.375C326.703 72.1122 326.755 71.8519 326.856 71.6091C326.957 71.3663 327.104 71.1457 327.29 70.96L327.35 70.9C327.581 70.6643 327.735 70.365 327.794 70.0406C327.853 69.7162 327.813 69.3816 327.68 69.08C327.553 68.7842 327.343 68.532 327.074 68.3543C326.806 68.1766 326.492 68.0813 326.17 68.08H326C325.47 68.08 324.961 67.8693 324.586 67.4942C324.211 67.1191 324 66.6104 324 66.08C324 65.5496 324.211 65.0409 324.586 64.6658C324.961 64.2907 325.47 64.08 326 64.08H326.09C326.421 64.0723 326.742 63.9651 327.011 63.7725C327.281 63.5799 327.486 63.3107 327.6 63C327.733 62.6984 327.773 62.3638 327.714 62.0394C327.655 61.715 327.501 61.4157 327.27 61.18L327.21 61.12C327.024 60.9343 326.877 60.7137 326.776 60.4709C326.675 60.2281 326.623 59.9678 326.623 59.705C326.623 59.4422 326.675 59.1819 326.776 58.9391C326.877 58.6963 327.024 58.4757 327.21 58.29C327.396 58.104 327.616 57.9565 327.859 57.8559C328.102 57.7552 328.362 57.7034 328.625 57.7034C328.888 57.7034 329.148 57.7552 329.391 57.8559C329.634 57.9565 329.854 58.104 330.04 58.29L330.1 58.35C330.336 58.5805 330.635 58.7352 330.959 58.794C331.284 58.8528 331.618 58.8131 331.92 58.68H332C332.296 58.5532 332.548 58.3428 332.726 58.0745C332.903 57.8062 332.999 57.4918 333 57.17V57C333 56.4696 333.211 55.9609 333.586 55.5858C333.961 55.2107 334.47 55 335 55C335.53 55 336.039 55.2107 336.414 55.5858C336.789 55.9609 337 56.4696 337 57V57.09C337.001 57.4118 337.097 57.7262 337.274 57.9945C337.452 58.2628 337.704 58.4732 338 58.6C338.302 58.7331 338.636 58.7728 338.961 58.714C339.285 58.6552 339.584 58.5005 339.82 58.27L339.88 58.21C340.066 58.024 340.286 57.8765 340.529 57.7759C340.772 57.6752 341.032 57.6234 341.295 57.6234C341.558 57.6234 341.818 57.6752 342.061 57.7759C342.304 57.8765 342.524 58.024 342.71 58.21C342.896 58.3957 343.043 58.6163 343.144 58.8591C343.245 59.1019 343.297 59.3622 343.297 59.625C343.297 59.8878 343.245 60.1481 343.144 60.3909C343.043 60.6337 342.896 60.8543 342.71 61.04L342.65 61.1C342.419 61.3357 342.265 61.635 342.206 61.9594C342.147 62.2838 342.187 62.6184 342.32 62.92V63C342.447 63.2958 342.657 63.548 342.926 63.7257C343.194 63.9034 343.508 63.9987 343.83 64H344C344.53 64 345.039 64.2107 345.414 64.5858C345.789 64.9609 346 65.4696 346 66C346 66.5304 345.789 67.0391 345.414 67.4142C345.039 67.7893 344.53 68 344 68H343.91C343.588 68.0013 343.274 68.0966 343.006 68.2743C342.737 68.452 342.527 68.7042 342.4 69V69Z" stroke="#A9AEE5" stroke-width="1.5" stroke-linecap="round" stroke-linejoin="round"/>
<path d="M108.59 67.41L101.42 74.58C101.234 74.766 101.014 74.9135 100.771 75.0141C100.528 75.1148 100.268 75.1666 100.005 75.1666C99.7422 75.1666 99.4819 75.1148 99.2391 75.0141C98.9963 74.9135 98.7757 74.766 98.59 74.58L90 66V56H100L108.59 64.59C108.963 64.9647 109.172 65.4716 109.172 66C109.172 66.5284 108.963 67.0353 108.59 67.41V67.41Z" stroke="#A9AEE5" stroke-width="1.5" stroke-linecap="round" stroke-linejoin="round"/>
<path d="M95 61H95.01" stroke="#A9AEE5" stroke-width="1.5" stroke-linecap="round" stroke-linejoin="round"/>
<g filter="url(#filter1_ddii)">
<path fill-rule="evenodd" clip-rule="evenodd" d="M187 76C206.33 76 222 60.33 222 41C222 21.67 206.33 6 187 6C167.67 6 152 21.67 152 41C152 60.33 167.67 76 187 76Z" fill="#FF7D64"/>
</g>
<path d="M187 34V48" stroke="white" stroke-width="1.5" stroke-linecap="round" stroke-linejoin="round"/>
<path d="M180 41H194" stroke="white" stroke-width="1.5" stroke-linecap="round" stroke-linejoin="round"/>
<g filter="url(#filter2_ddii)">
<circle cx="287" cy="54" r="4" fill="#EE7861"/>
</g>
<defs>
<filter id="filter0_ddii" x="-6" y="21.7938" width="385" height="87.1503" filterUnits="userSpaceOnUse" color-interpolation-filters="sRGB">
<feFlood flood-opacity="0" result="BackgroundImageFix"/>
<feColorMatrix in="SourceAlpha" type="matrix" values="0 0 0 0 0 0 0 0 0 0 0 0 0 0 0 0 0 0 127 0"/>
<feOffset dy="2"/>
<feGaussianBlur stdDeviation="2"/>
<feColorMatrix type="matrix" values="0 0 0 0 0.0980392 0 0 0 0 0.14902 0 0 0 0 0.286275 0 0 0 0.08 0"/>
<feBlend mode="normal" in2="BackgroundImageFix" result="effect1_dropShadow"/>
<feColorMatrix in="SourceAlpha" type="matrix" values="0 0 0 0 0 0 0 0 0 0 0 0 0 0 0 0 0 0 127 0"/>
<feOffset dx="-2" dy="-2"/>
<feGaussianBlur stdDeviation="2"/>
<feColorMatrix type="matrix" values="0 0 0 0 1 0 0 0 0 1 0 0 0 0 1 0 0 0 1 0"/>
<feBlend mode="normal" in2="effect1_dropShadow" result="effect2_dropShadow"/>
<feBlend mode="normal" in="SourceGraphic" in2="effect2_dropShadow" result="shape"/>
<feColorMatrix in="SourceAlpha" type="matrix" values="0 0 0 0 0 0 0 0 0 0 0 0 0 0 0 0 0 0 127 0" result="hardAlpha"/>
<feOffset dx="1" dy="1"/>
<feGaussianBlur stdDeviation="2.5"/>
<feComposite in2="hardAlpha" operator="arithmetic" k2="-1" k3="1"/>
<feColorMatrix type="matrix" values="0 0 0 0 0.0941176 0 0 0 0 0.14902 0 0 0 0 0.282353 0 0 0 0.13 0"/>
<feBlend mode="normal" in2="shape" result="effect3_innerShadow"/>
<feColorMatrix in="SourceAlpha" type="matrix" values="0 0 0 0 0 0 0 0 0 0 0 0 0 0 0 0 0 0 127 0" result="hardAlpha"/>
<feOffset dx="-2" dy="-2"/>
<feGaussianBlur stdDeviation="2.5"/>
<feComposite in2="hardAlpha" operator="arithmetic" k2="-1" k3="1"/>
<feColorMatrix type="matrix" values="0 0 0 0 1 0 0 0 0 1 0 0 0 0 1 0 0 0 1 0"/>
<feBlend mode="normal" in2="effect3_innerShadow" result="effect4_innerShadow"/>
</filter>
<filter id="filter1_ddii" x="146" y="0" width="80" height="82" filterUnits="userSpaceOnUse" color-interpolation-filters="sRGB">
<feFlood flood-opacity="0" result="BackgroundImageFix"/>
<feColorMatrix in="SourceAlpha" type="matrix" values="0 0 0 0 0 0 0 0 0 0 0 0 0 0 0 0 0 0 127 0"/>
<feOffset dy="2"/>
<feGaussianBlur stdDeviation="2"/>
<feColorMatrix type="matrix" values="0 0 0 0 0.0980392 0 0 0 0 0.14902 0 0 0 0 0.286275 0 0 0 0.14 0"/>
<feBlend mode="normal" in2="BackgroundImageFix" result="effect1_dropShadow"/>
<feColorMatrix in="SourceAlpha" type="matrix" values="0 0 0 0 0 0 0 0 0 0 0 0 0 0 0 0 0 0 127 0"/>
<feOffset dx="-2" dy="-2"/>
<feGaussianBlur stdDeviation="2"/>
<feColorMatrix type="matrix" values="0 0 0 0 1 0 0 0 0 1 0 0 0 0 1 0 0 0 1 0"/>
<feBlend mode="normal" in2="effect1_dropShadow" result="effect2_dropShadow"/>
<feBlend mode="normal" in="SourceGraphic" in2="effect2_dropShadow" result="shape"/>
<feColorMatrix in="SourceAlpha" type="matrix" values="0 0 0 0 0 0 0 0 0 0 0 0 0 0 0 0 0 0 127 0" result="hardAlpha"/>
<feOffset dx="1" dy="1"/>
<feGaussianBlur stdDeviation="2.5"/>
<feComposite in2="hardAlpha" operator="arithmetic" k2="-1" k3="1"/>
<feColorMatrix type="matrix" values="0 0 0 0 1 0 0 0 0 0.759397 0 0 0 0 0.7125 0 0 0 1 0"/>
<feBlend mode="normal" in2="shape" result="effect3_innerShadow"/>
<feColorMatrix in="SourceAlpha" type="matrix" values="0 0 0 0 0 0 0 0 0 0 0 0 0 0 0 0 0 0 127 0" result="hardAlpha"/>
<feOffset dx="-2" dy="-2"/>
<feGaussianBlur stdDeviation="2.5"/>
<feComposite in2="hardAlpha" operator="arithmetic" k2="-1" k3="1"/>
<feColorMatrix type="matrix" values="0 0 0 0 0.754167 0 0 0 0 0.320253 0 0 0 0 0.235677 0 0 0 1 0"/>
<feBlend mode="normal" in2="effect3_innerShadow" result="effect4_innerShadow"/>
</filter>
<filter id="filter2_ddii" x="282" y="49.2" width="10" height="10" filterUnits="userSpaceOnUse" color-interpolation-filters="sRGB">
<feFlood flood-opacity="0" result="BackgroundImageFix"/>
<feColorMatrix in="SourceAlpha" type="matrix" values="0 0 0 0 0 0 0 0 0 0 0 0 0 0 0 0 0 0 127 0"/>
<feOffset dy="0.2"/>
<feGaussianBlur stdDeviation="0.5"/>
<feColorMatrix type="matrix" values="0 0 0 0 0.0980392 0 0 0 0 0.14902 0 0 0 0 0.286275 0 0 0 0.14 0"/>
<feBlend mode="normal" in2="BackgroundImageFix" result="effect1_dropShadow"/>
<feColorMatrix in="SourceAlpha" type="matrix" values="0 0 0 0 0 0 0 0 0 0 0 0 0 0 0 0 0 0 127 0"/>
<feOffset dx="-0.2" dy="-0.2"/>
<feColorMatrix type="matrix" values="0 0 0 0 1 0 0 0 0 1 0 0 0 0 1 0 0 0 1 0"/>
<feBlend mode="normal" in2="effect1_dropShadow" result="effect2_dropShadow"/>
<feBlend mode="normal" in="SourceGraphic" in2="effect2_dropShadow" result="shape"/>
<feColorMatrix in="SourceAlpha" type="matrix" values="0 0 0 0 0 0 0 0 0 0 0 0 0 0 0 0 0 0 127 0" result="hardAlpha"/>
<feOffset dx="0.2" dy="0.2"/>
<feGaussianBlur stdDeviation="0.5"/>
<feComposite in2="hardAlpha" operator="arithmetic" k2="-1" k3="1"/>
<feColorMatrix type="matrix" values="0 0 0 0 1 0 0 0 0 0.836111 0 0 0 0 0.804167 0 0 0 1 0"/>
<feBlend mode="normal" in2="shape" result="effect3_innerShadow"/>
<feColorMatrix in="SourceAlpha" type="matrix" values="0 0 0 0 0 0 0 0 0 0 0 0 0 0 0 0 0 0 127 0" result="hardAlpha"/>
<feOffset dx="-0.2" dy="-0.2"/>
<feGaussianBlur stdDeviation="0.5"/>
<feComposite in2="hardAlpha" operator="arithmetic" k2="-1" k3="1"/>
<feColorMatrix type="matrix" values="0 0 0 0 0.666667 0 0 0 0 0.236604 0 0 0 0 0.152778 0 0 0 1 0"/>
<feBlend mode="normal" in2="effect3_innerShadow" result="effect4_innerShadow"/>
</filter>
</defs>
</svg>
